<svg width="27" height="26" viewBox="0 0 27 26" fill="none" xmlns="http://www.w3.org/2000/svg">
<path d="M13.5 2C10.5149 2 10.1395 2.01375 8.96663 2.066C7.79375 2.121 6.99487 2.30525 6.295 2.5775C5.56088 2.85363 4.89593 3.28676 4.34663 3.84663C3.7871 4.39621 3.35402 5.06108 3.0775 5.795C2.80525 6.4935 2.61963 7.29375 2.566 8.4625C2.51375 9.63812 2.5 10.0121 2.5 13.0014C2.5 15.9879 2.51375 16.3619 2.566 17.5347C2.621 18.7063 2.80525 19.5051 3.0775 20.205C3.35938 20.9282 3.73475 21.5415 4.34663 22.1534C4.95713 22.7652 5.57037 23.142 6.29363 23.4225C6.99487 23.6947 7.79238 23.8804 8.96388 23.934C10.1381 23.9862 10.5121 24 13.5 24C16.4879 24 16.8605 23.9862 18.0347 23.934C19.2049 23.879 20.0065 23.6947 20.7064 23.4225C21.44 23.1462 22.1045 22.7131 22.6534 22.1534C23.2652 21.5415 23.6406 20.9282 23.9225 20.205C24.1934 19.5051 24.379 18.7063 24.434 17.5347C24.4862 16.3619 24.5 15.9879 24.5 13C24.5 10.0121 24.4862 9.63813 24.434 8.46388C24.379 7.29375 24.1934 6.4935 23.9225 5.795C23.646 5.06106 23.2129 4.39618 22.6534 3.84663C22.1042 3.28655 21.4392 2.85339 20.705 2.5775C20.0037 2.30525 19.2035 2.11963 18.0334 2.066C16.8591 2.01375 16.4865 2 13.4973 2H13.5014H13.5ZM12.5141 3.98275H13.5014C16.4384 3.98275 16.7863 3.99238 17.9454 4.046C19.0179 4.09413 19.6009 4.27425 19.9886 4.42412C20.5015 4.6235 20.8686 4.86275 21.2536 5.24775C21.6386 5.63275 21.8765 5.9985 22.0759 6.51275C22.2271 6.89913 22.4059 7.48213 22.454 8.55463C22.5076 9.71375 22.5186 10.0616 22.5186 12.9973C22.5186 15.9329 22.5076 16.2821 22.454 17.4412C22.4059 18.5138 22.2257 19.0954 22.0759 19.4831C21.8995 19.9607 21.618 20.3926 21.2522 20.7467C20.8672 21.1318 20.5015 21.3696 19.9873 21.569C19.6023 21.7203 19.0192 21.899 17.9454 21.9485C16.7863 22.0007 16.4384 22.0131 13.5014 22.0131C10.5644 22.0131 10.2151 22.0007 9.056 21.9485C7.9835 21.899 7.40188 21.7203 7.01412 21.569C6.53631 21.3929 6.10405 21.1119 5.74913 20.7467C5.38303 20.392 5.10112 19.9598 4.92412 19.4818C4.77425 19.0954 4.59413 18.5124 4.546 17.4399C4.49375 16.2808 4.48275 15.9329 4.48275 12.9945C4.48275 10.0575 4.49375 9.711 4.546 8.55187C4.5955 7.47937 4.77425 6.89638 4.9255 6.50863C5.12488 5.99575 5.36412 5.62862 5.74913 5.24362C6.13412 4.85862 6.49988 4.62075 7.01412 4.42138C7.40188 4.27013 7.9835 4.09138 9.056 4.04188C10.0708 3.99513 10.464 3.98138 12.5141 3.98V3.98275ZM19.3726 5.80875C19.1993 5.80875 19.0276 5.84289 18.8675 5.90923C18.7073 5.97557 18.5618 6.0728 18.4392 6.19537C18.3167 6.31794 18.2194 6.46346 18.1531 6.62361C18.0868 6.78376 18.0526 6.95541 18.0526 7.12875C18.0526 7.30209 18.0868 7.47374 18.1531 7.63389C18.2194 7.79404 18.3167 7.93956 18.4392 8.06213C18.5618 8.1847 18.7073 8.28193 18.8675 8.34827C19.0276 8.41461 19.1993 8.44875 19.3726 8.44875C19.7227 8.44875 20.0585 8.30968 20.306 8.06213C20.5536 7.81458 20.6926 7.47884 20.6926 7.12875C20.6926 6.77866 20.5536 6.44292 20.306 6.19537C20.0585 5.94782 19.7227 5.80875 19.3726 5.80875ZM13.5014 7.3515C12.7521 7.33981 12.008 7.47729 11.3123 7.75594C10.6167 8.0346 9.98346 8.44885 9.44946 8.97458C8.91546 9.50032 8.49138 10.127 8.20191 10.8182C7.91244 11.5094 7.76336 12.2513 7.76336 13.0007C7.76336 13.7501 7.91244 14.4919 8.20191 15.1831C8.49138 15.8743 8.91546 16.5011 9.44946 17.0268C9.98346 17.5525 10.6167 17.9668 11.3123 18.2454C12.008 18.5241 12.7521 18.6616 13.5014 18.6499C14.9844 18.6267 16.3988 18.0214 17.4393 16.9645C18.4799 15.9076 19.0631 14.4839 19.0631 13.0007C19.0631 11.5175 18.4799 10.0938 17.4393 9.03691C16.3988 7.97999 14.9844 7.37464 13.5014 7.3515ZM13.5014 9.33288C14.474 9.33288 15.4067 9.71923 16.0944 10.407C16.7821 11.0947 17.1685 12.0274 17.1685 13C17.1685 13.9726 16.7821 14.9053 16.0944 15.593C15.4067 16.2808 14.474 16.6671 13.5014 16.6671C12.5288 16.6671 11.596 16.2808 10.9083 15.593C10.2206 14.9053 9.83425 13.9726 9.83425 13C9.83425 12.0274 10.2206 11.0947 10.9083 10.407C11.596 9.71923 12.5288 9.33288 13.5014 9.33288Z" fill="white"/>
</svg>
